<svg xmlns="http://www.w3.org/2000/svg" width="40" height="42" viewBox="0 0 40 42" fill="none">
  <path d="M35.3723 8.08876L33.5011 10.8371C34.5744 12.6334 35.1443 14.6947 35.1443 16.8149C35.1443 23.1067 30.1861 28.2207 24.0881 28.2207C17.9901 28.2207 13.0224 23.1067 13.0224 16.8149C13.0224 10.523 17.9806 5.40908 24.0881 5.40908C25.9973 5.40908 27.878 5.9195 29.5212 6.88143L31.5634 4.47659C29.3218 3.03369 26.7382 2.26807 24.0786 2.26807C16.2994 2.26807 9.9639 8.79549 9.9639 16.8149C9.9639 20.1326 11.0752 23.3816 13.0889 25.9533L13.1269 25.9925L13.1364 26.1692L10.4293 28.9569L9.65045 28.2796L0 37.9677L2.71656 41.0792L12.4145 31.4108L11.7591 30.6746L14.7416 27.7299L14.8556 27.8281C17.4202 30.1053 20.6877 31.3617 24.0786 31.3617C31.8579 31.3617 38.1839 24.8343 38.1839 16.8149C38.1934 13.6346 37.215 10.6212 35.3723 8.08876Z" fill="#F4F9FC"/>
  <path d="M16.1133 12.3972C16.1133 12.3972 21.3944 17.8449 24.1015 24.7649C24.1015 24.7649 33.41 5.5753 40.0019 0C40.0019 0 34.7018 1.95332 24.1015 15.5578C24.1015 15.5578 19.3523 12.3972 16.1133 12.3972Z" fill="#F4F9FC"/>
</svg>